<?xml version="1.0" encoding="UTF-8" standalone="no"?>
<svg
   xmlns:dc="http://purl.org/dc/elements/1.1/"
   xmlns:cc="http://creativecommons.org/ns#"
   xmlns:rdf="http://www.w3.org/1999/02/22-rdf-syntax-ns#"
   xmlns:svg="http://www.w3.org/2000/svg"
   xmlns="http://www.w3.org/2000/svg"
   xmlns:sodipodi="http://sodipodi.sourceforge.net/DTD/sodipodi-0.dtd"
   xmlns:inkscape="http://www.inkscape.org/namespaces/inkscape"
   width="16"
   height="16"
   fill="currentColor"
   class="bi bi-calculator"
   viewBox="0 0 16 16"
   version="1.1"
   id="svg6"
   sodipodi:docname="estimate.svg"
   inkscape:version="1.0.2 (e86c870879, 2021-01-15)">
  <metadata
     id="metadata12">
    <rdf:RDF>
      <cc:Work
         rdf:about="">
        <dc:format>image/svg+xml</dc:format>
        <dc:type
           rdf:resource="http://purl.org/dc/dcmitype/StillImage" />
        <dc:title></dc:title>
      </cc:Work>
    </rdf:RDF>
  </metadata>
  <defs
     id="defs10" />
  <sodipodi:namedview
     pagecolor="#ffffff"
     bordercolor="#666666"
     borderopacity="1"
     objecttolerance="10"
     gridtolerance="10"
     guidetolerance="10"
     inkscape:pageopacity="0"
     inkscape:pageshadow="2"
     inkscape:window-width="1366"
     inkscape:window-height="705"
     id="namedview8"
     showgrid="false"
     inkscape:zoom="11.398216"
     inkscape:cx="-2.4008852"
     inkscape:cy="5.5418117"
     inkscape:window-x="-8"
     inkscape:window-y="-8"
     inkscape:window-maximized="1"
     inkscape:current-layer="svg6" />
  <path
     d="m 11.572879,2.2865128 a 0.92328497,0.88255142 0 0 1 0.923285,0.8825514 V 13.759682 a 0.92328497,0.88255142 0 0 1 -0.923285,0.882551 H 4.1865992 A 0.92328497,0.88255142 0 0 1 3.2633142,13.759682 V 3.1690642 A 0.92328497,0.88255142 0 0 1 4.1865992,2.2865128 Z M 4.1865992,1.4039613 A 1.8465699,1.7651028 0 0 0 2.3400293,3.1690642 V 13.759682 a 1.8465699,1.7651028 0 0 0 1.8465699,1.765102 h 7.3862798 a 1.8465699,1.7651028 0 0 0 1.84657,-1.765102 V 3.1690642 a 1.8465699,1.7651028 0 0 0 -1.84657,-1.7651029 z"
     id="path2"
     style="stroke-width:0.902688" />
  <path
     d="M 3.8715731,4.0757192 A 0.46164249,0.44127571 0 0 1 4.3332156,3.6344435 H 10.79621 a 0.46164249,0.44127571 0 0 1 0.461643,0.4412757 V 5.8408221 A 0.46164249,0.44127571 0 0 1 10.79621,6.2820978 H 4.3332156 A 0.46164249,0.44127571 0 0 1 3.8715731,5.8408221 Z m 0,3.5302057 A 0.46164249,0.44127571 0 0 1 4.3332156,7.1646492 H 5.2565005 A 0.46164249,0.44127571 0 0 1 5.718143,7.6059249 V 8.4884763 A 0.46164249,0.44127571 0 0 1 5.2565005,8.929752 H 4.3332156 A 0.46164249,0.44127571 0 0 1 3.8715731,8.4884763 Z m 0,2.6476541 A 0.46164249,0.44127571 0 0 1 4.3332156,9.8123035 H 5.2565005 A 0.46164249,0.44127571 0 0 1 5.718143,10.253579 v 0.882552 A 0.46164249,0.44127571 0 0 1 5.2565005,11.577406 H 4.3332156 A 0.46164249,0.44127571 0 0 1 3.8715731,11.136131 Z m 0,2.647654 a 0.46164249,0.44127571 0 0 1 0.4616425,-0.441275 h 0.9232849 a 0.46164249,0.44127571 0 0 1 0.4616425,0.441275 v 0.882552 A 0.46164249,0.44127571 0 0 1 5.2565005,14.225061 H 4.3332156 A 0.46164249,0.44127571 0 0 1 3.8715731,13.783785 Z M 6.641428,7.6059249 A 0.46164249,0.44127571 0 0 1 7.1030705,7.1646492 h 0.923285 A 0.46164249,0.44127571 0 0 1 8.4879979,7.6059249 V 8.4884763 A 0.46164249,0.44127571 0 0 1 8.0263555,8.929752 H 7.1030705 A 0.46164249,0.44127571 0 0 1 6.641428,8.4884763 Z m 0,2.6476541 A 0.46164249,0.44127571 0 0 1 7.1030705,9.8123035 h 0.923285 a 0.46164249,0.44127571 0 0 1 0.4616424,0.4412755 v 0.882552 A 0.46164249,0.44127571 0 0 1 8.0263555,11.577406 H 7.1030705 A 0.46164249,0.44127571 0 0 1 6.641428,11.136131 Z m 0,2.647654 a 0.46164249,0.44127571 0 0 1 0.4616425,-0.441275 h 0.923285 a 0.46164249,0.44127571 0 0 1 0.4616424,0.441275 v 0.882552 A 0.46164249,0.44127571 0 0 1 8.0263555,14.225061 H 7.1030705 A 0.46164249,0.44127571 0 0 1 6.641428,13.783785 Z M 9.4112829,7.6059249 A 0.46164249,0.44127571 0 0 1 9.8729254,7.1646492 H 10.79621 a 0.46164249,0.44127571 0 0 1 0.461643,0.4412757 V 8.4884763 A 0.46164249,0.44127571 0 0 1 10.79621,8.929752 H 9.8729254 A 0.46164249,0.44127571 0 0 1 9.4112829,8.4884763 Z m 0,2.6476541 A 0.46164249,0.44127571 0 0 1 9.8729254,9.8123035 H 10.79621 a 0.46164249,0.44127571 0 0 1 0.461643,0.4412755 v 3.530206 A 0.46164249,0.44127571 0 0 1 10.79621,14.225061 H 9.8729254 A 0.46164249,0.44127571 0 0 1 9.4112829,13.783785 Z"
     id="path4"
     style="stroke-width:0.902688" />
  <ellipse
     style="fill:#0080e8;stroke:#f5f5f5;stroke-width:0.205486;paint-order:stroke fill markers"
     id="path930"
     cx="11.176129"
     cy="12.133517"
     rx="3.7012718"
     ry="3.6908908" />
  <g
     style="fill:currentColor"
     id="g922"
     transform="matrix(0.43747383,0,0,0.42303825,7.6511841,8.6490476)">
    <path
       d="m 4,10.781 c 0.148,1.667 1.513,2.85 3.591,3.003 V 15 h 1.043 v -1.216 c 2.27,-0.179 3.678,-1.438 3.678,-3.3 0,-1.59 -0.947,-2.51 -2.956,-3.028 L 8.634,7.269 V 3.467 c 1.122,0.11 1.879,0.714 2.07,1.616 h 1.47 C 12.008,3.483 10.634,2.335 8.634,2.208 V 1 H 7.591 v 1.233 c -1.939,0.23 -3.27,1.472 -3.27,3.156 0,1.454 0.966,2.483 2.661,2.917 l 0.61,0.162 v 4.031 c -1.149,-0.17 -1.94,-0.8 -2.131,-1.718 z M 7.391,6.945 C 6.348,6.682 5.791,6.12 5.791,5.329 c 0,-0.944 0.704,-1.641 1.8,-1.828 v 3.495 l -0.2,-0.05 z m 1.591,1.872 c 1.287,0.323 1.852,0.859 1.852,1.769 0,1.097 -0.826,1.828 -2.2,1.939 V 8.73 l 0.348,0.086 z"
       id="path911" />
  </g>
</svg>
